<?xml version="1.0" encoding="utf-8"?>
<!-- Generator: Adobe Illustrator 27.0.1, SVG Export Plug-In . SVG Version: 6.00 Build 0)  -->
<svg version="1.1" id="Capa_1" xmlns="http://www.w3.org/2000/svg" xmlns:xlink="http://www.w3.org/1999/xlink" x="0px" y="0px"
	 viewBox="0 0 64 64" style="enable-background:new 0 0 64 64;" xml:space="preserve">
<style type="text/css">
	.st0{fill:#FFFFFF;}
</style>
<path class="st0" d="M35,5C20.4,5,8.3,15.9,6.3,30H1c-0.6,0-1,0.4-1,1v6c0,0.6,0.4,1,1,1h5.3c2,14.1,14.1,25,28.7,25
	c16,0,29-13,29-29S51,5,35,5z M35,7c14.9,0,27,12.1,27,27S49.9,61,35,61C21.5,61,10.3,51,8.3,38h19.3l-2.3,2.3c-0.4,0.4-0.4,1,0,1.4
	l4,4c0.2,0.2,0.5,0.3,0.7,0.3s0.5-0.1,0.7-0.3l11-11c0.4-0.4,0.4-1,0-1.4l-11-11c-0.4-0.4-1-0.4-1.4,0l-4,4c-0.4,0.4-0.4,1,0,1.4
	l2.3,2.3H8.3C10.3,17,21.5,7,35,7z M34.6,11c-5.9,0.1-11.6,2.5-15.8,6.7C16,20.5,14,23.8,13,27.4c-0.3,1.2,1.5,1.8,2,0.4
	c1-3.3,2.8-6.3,5.2-8.7c4.7-4.7,11.5-6.9,18.2-5.9c0.5,0.1,1.1-0.3,1.1-0.8s-0.3-1.1-0.8-1.1C37.3,11.1,35.9,11,34.6,11z M42.7,12.4
	c-0.4,0-0.7,0.3-0.9,0.7c-0.2,0.5,0.1,1.1,0.6,1.3c0.7,0.3,1.4,0.6,2.1,0.9c0.1,0.1,0.3,0.1,0.4,0.1c0.4,0,0.7-0.2,0.9-0.5
	c0.2-0.5,0.1-1.1-0.4-1.3c-0.7-0.4-1.5-0.7-2.3-1C42.9,12.4,42.8,12.4,42.7,12.4z M48.4,15.7c-0.3,0-0.5,0.2-0.7,0.4
	c-0.3,0.4-0.3,1.1,0.2,1.4c0.7,0.5,1.3,1.1,1.9,1.7c8.2,8.2,8.2,21.5,0,29.7c-0.4,0.4-0.4,1,0,1.4c0.2,0.2,0.5,0.3,0.7,0.3
	s0.5-0.1,0.7-0.3c9-9,9-23.6,0-32.5c-0.7-0.7-1.4-1.3-2.1-1.9C49,15.7,48.7,15.6,48.4,15.7z M30,24.4l9.6,9.6L30,43.6L27.4,41
	l3.3-3.3c0.3-0.3,0.4-0.7,0.2-1.1C30.8,36.2,30.4,36,30,36H2v-4h28c0.4,0,0.8-0.2,0.9-0.6c0.2-0.4,0.1-0.8-0.2-1.1L27.4,27L30,24.4z
	 M14,39.2c-0.6-0.1-1.3,0.5-1.1,1.3c1.1,3.7,3.1,7.1,5.8,9.8c0.2,0.2,0.5,0.3,0.7,0.3s0.5-0.1,0.7-0.3c0.4-0.4,0.4-1,0-1.4
	c-2.5-2.5-4.3-5.5-5.3-8.8C14.7,39.5,14.4,39.2,14,39.2z M25.4,50.4c-0.4,0-0.8,0.1-1,0.5l-1,1.7c-0.3,0.5-0.1,1.1,0.4,1.4
	c0.2,0.1,0.3,0.1,0.5,0.1c0.3,0,0.7-0.2,0.9-0.5l1-1.7c0.3-0.5,0.1-1.1-0.4-1.4C25.6,50.5,25.5,50.4,25.4,50.4z M44.6,50.4
	c-0.1,0-0.3,0.1-0.4,0.1c-0.5,0.3-0.6,0.9-0.4,1.4l1,1.7c0.2,0.3,0.5,0.5,0.9,0.5c0.2,0,0.3,0,0.5-0.1c0.5-0.3,0.6-0.9,0.4-1.4
	l-1-1.7C45.4,50.5,45,50.3,44.6,50.4z M29.8,52.3c-0.4,0.1-0.7,0.3-0.8,0.7L28.5,55c-0.1,0.5,0.2,1.1,0.7,1.2c0.1,0,0.2,0,0.3,0
	c0.4,0,0.8-0.3,1-0.7l0.5-1.9c0.1-0.5-0.2-1.1-0.7-1.2C30.1,52.3,29.9,52.3,29.8,52.3z M40.2,52.3c-0.1,0-0.3,0-0.4,0
	c-0.5,0.1-0.9,0.7-0.7,1.2l0.5,1.9c0.1,0.4,0.5,0.7,1,0.7c0.1,0,0.2,0,0.3,0c0.5-0.1,0.9-0.7,0.7-1.2L41,53.1
	C40.9,52.7,40.6,52.4,40.2,52.3z M35,53c-0.6,0-1,0.4-1,1v2c0,0.6,0.4,1,1,1s1-0.4,1-1v-2C36,53.4,35.6,53,35,53z"/>
</svg>
